<svg width="800" height="600" viewBox="0 0 800 600" fill="none" xmlns="http://www.w3.org/2000/svg">
  <defs>
    <linearGradient id="gradient1" x1="0%" y1="0%" x2="100%" y2="0%">
      <stop offset="0%" style="stop-color:#9B59B6;stop-opacity:1" />
      <stop offset="100%" style="stop-color:#3498DB;stop-opacity:1" />
    </linearGradient>
    <linearGradient id="gradient2" x1="0%" y1="0%" x2="100%" y2="0%">
      <stop offset="0%" style="stop-color:#E74C3C;stop-opacity:1" />
      <stop offset="100%" style="stop-color:#F39C12;stop-opacity:1" />
    </linearGradient>
  </defs>

  <g transform="translate(400, 250)">
    <!-- Logo -->
    <path d="M-50 -70 C-60 -90 -70 -100 -80 -100 S-90 -90 -100 -70 L-70 -70 Q-60 -80 -50 -70 Z" fill="url(#gradient1)"/>
    <path d="M-20 -60 C-30 -80 -40 -90 -50 -90 S-60 -80 -70 -60 L-40 -60 Q-30 -70 -20 -60 Z" fill="url(#gradient1)"/>
    <path d="M10 -50 C0 -70 -10 -80 -20 -80 S-30 -70 -40 -50 L-10 -50 Q0 -60 10 -50 Z" fill="url(#gradient1)"/>
    <path d="M40 -40 C30 -60 20 -70 10 -70 S0 -60 -10 -40 L20 -40 Q30 -50 40 -40 Z" fill="url(#gradient1)"/>

    <path d="M-10 0 L-10 -20 L10 -20 L10 0 L-10 0 Z" fill="#34495E"/>
    <rect x="-15" y="-30" width="30" height="10" fill="#34495E"/>
    <circle cx="0" cy="-15" r="5" fill="#2C3E50"/>
    <rect x="-20" y="-50" width="40" height="10" fill="#34495E"/>
    <rect x="-25" y="-60" width="50" height="10" fill="#2C3E50"/>
    <rect x="-5" y="0" width="10" height="20" fill="#34495E"/>
    <rect x="-10" y="20" width="20" height="10" fill="#2C3E50"/>
    <rect x="-15" y="30" width="30" height="10" fill="#34495E"/>

    <!-- Microscope -->
    <path d="M70 -80 C70 -90 80 -100 90 -100 S100 -90 100 -80 L90 -80 Q80 -90 70 -80 Z" fill="#34495E"/>
    <rect x="75" y="-70" width="10" height="20" fill="#2C3E50"/>
    <rect x="70" y="-50" width="20" height="5" fill="#34495E"/>
    <rect x="70" y="-45" width="5" height="40" fill="#2C3E50"/>
    <rect x="75" y="-5" width="15" height="5" fill="#34495E"/>
    <rect x="60" y="0" width="30" height="10" fill="#2C3E50"/>
    <rect x="55" y="10" width="40" height="5" fill="#34495E"/>
    <rect x="60" y="15" width="30" height="10" fill="#2C3E50"/>
    <circle cx="75" cy="-75" r="3" fill="white"/>
    <rect x="80" y="-85" width="10" height="10" fill="white"/>
    <rect x="85" y="-90" width="5" height="5" fill="#34495E"/>
  </g>

  <!-- Title -->
  <text x="50%" y="380" font-family="Arial, sans-serif" font-size="48" font-weight="bold" fill="#34495E" text-anchor="middle">SISTINPAT</text>

  <!-- Description -->
  <text x="50%" y="430" font-family="Arial, sans-serif" font-size="24" fill="#5F6F81" text-anchor="middle">Sistema de información para laboratorios de patología</text>
</svg>